# xmcd
#
# Track frame offsets: 
#        150
#        16823
#        25429
#        65186
#        82442
#        97505
#        117646
#        133893
#        149335
#
# Disc length: 2198 seconds
#
# Revision: 0
# Processed by: cddbd v1.5.2PL0 Copyright (c) Steve Scherf et al.
# Submitted via: ExactAudioCopy v0.99pb5
#
DISCID=84089409
DTITLE=Iguana  - Iguana  FLAC
DYEAR=1900
DGENRE=
TTITLE0=01 - Iguana - Iguana
TTITLE1=02 - Southampton Blues - Iguana
TTITLE2=03 - Price Of Love - Iguana
TTITLE3=04 - Power Of Love - Iguana
TTITLE4=05 - I Don't Need No Buddy - Iguana
TTITLE5=06 - Ron's Tune - Iguana
TTITLE6=07 - Prostitute - Iguana
TTITLE7=08 - Grey Day Lady - Iguana
TTITLE8=09 - Celluloid Samba - Iguana
EXTD=
EXTT0=
EXTT1=
EXTT2=
EXTT3=
EXTT4=
EXTT5=
EXTT6=
EXTT7=
EXTT8=
PLAYORDER=
